<svg width="81" height="80" viewBox="0 0 81 80" fill="none" xmlns="http://www.w3.org/2000/svg">
<path d="M78.8461 49.6511C73.5086 71.0665 51.8183 84.1436 30.3635 78.8028C8.94794 73.449 -4.1081 51.7586 1.22944 30.3431C6.56698 8.92759 28.2442 -4.14947 49.6467 1.19131C71.1146 6.46665 84.1706 28.2225 78.8461 49.6511Z" fill="#0033AD"/>
<path d="M40.3399 19.6674C40.6135 19.683 40.8855 19.6171 41.1216 19.478C41.3577 19.339 41.5472 19.133 41.6663 18.8862C41.7853 18.6395 41.8284 18.3629 41.7903 18.0916C41.7521 17.8203 41.6343 17.5663 41.4518 17.362C41.2693 17.1576 41.0303 17.0119 40.765 16.9434C40.4997 16.8749 40.2201 16.8866 39.9614 16.9771C39.7028 17.0675 39.4768 17.2326 39.312 17.4515C39.1472 17.6704 39.0511 17.9333 39.0357 18.2069C39.0151 18.5735 39.141 18.9332 39.3855 19.2071C39.6301 19.481 39.9733 19.6465 40.3399 19.6674Z" fill="white"/>
<path d="M52.3881 20.353C52.1726 20.355 51.9615 20.293 51.7813 20.1749C51.54 20.0167 51.3713 19.7692 51.3123 19.4867C51.2533 19.2042 51.3089 18.9099 51.4668 18.6683C51.5846 18.488 51.7533 18.3467 51.9515 18.2623C52.1497 18.1778 52.3685 18.1541 52.5802 18.194C52.7919 18.234 52.987 18.3358 53.1408 18.4867C53.2946 18.6376 53.4002 18.8307 53.4443 19.0415C53.4883 19.2524 53.4688 19.4717 53.3882 19.6714C53.3076 19.8712 53.1696 20.0427 52.9915 20.164C52.8135 20.2853 52.6035 20.3511 52.3881 20.353Z" fill="white"/>
<path d="M28.956 20.2892C29.1471 20.1911 29.305 20.0386 29.4096 19.8509C29.5143 19.6632 29.5611 19.4488 29.5441 19.2346C29.5272 19.0204 29.4472 18.816 29.3144 18.6472C29.1815 18.4783 29.0017 18.3525 28.7975 18.2856C28.5933 18.2188 28.3739 18.2138 28.1668 18.2713C27.9598 18.3289 27.7745 18.4464 27.6341 18.6091C27.4937 18.7718 27.4046 18.9723 27.378 19.1855C27.3514 19.3987 27.3884 19.6151 27.4844 19.8073C27.549 19.9359 27.6384 20.0505 27.7474 20.1445C27.8565 20.2384 27.9831 20.3099 28.1199 20.3547C28.2567 20.3995 28.401 20.4167 28.5445 20.4055C28.688 20.3943 28.8278 20.3548 28.956 20.2892Z" fill="white"/>
<path d="M30.0178 42.2629C29.4232 41.5951 29.118 40.7186 29.1693 39.826L29.1601 39.8278C29.1978 39.1715 29.4268 38.5406 29.819 38.013C30.2111 37.4854 30.7492 37.0841 31.3667 36.8587C31.9843 36.6334 32.6543 36.5938 33.2941 36.7448C33.9339 36.8958 34.5155 37.2309 34.967 37.7086C35.4186 38.1864 35.7204 38.7859 35.8352 39.4332C35.95 40.0805 35.8727 40.7472 35.613 41.3511C35.3532 41.955 34.9223 42.4696 34.3735 42.8314C33.8246 43.1933 33.1818 43.3865 32.5244 43.3872H32.3405C31.4479 43.335 30.6125 42.9306 30.0178 42.2629Z" fill="white"/>
<path d="M16.0035 39.1216C16.1887 39.0124 16.402 38.9605 16.6166 38.9726C16.7594 38.9803 16.8992 39.0162 17.0281 39.0781C17.1569 39.1401 17.2723 39.2269 17.3675 39.3335C17.4627 39.4402 17.5359 39.5646 17.5828 39.6996C17.6298 39.8347 17.6496 39.9777 17.6412 40.1204C17.6289 40.335 17.5532 40.5411 17.4237 40.7127C17.2943 40.8843 17.1169 41.0136 16.9139 41.0844C16.711 41.1552 16.4916 41.1643 16.2835 41.1104C16.0754 41.0566 15.888 40.9423 15.7449 40.7819C15.6017 40.6216 15.5093 40.4224 15.4794 40.2095C15.4494 39.9967 15.4832 39.7797 15.5765 39.5861C15.6698 39.3925 15.8184 39.2308 16.0035 39.1216Z" fill="white"/>
<path d="M33.0778 25.5719C32.9142 25.8613 32.6684 26.0957 32.3716 26.2454C32.1743 26.3449 31.9595 26.4045 31.7392 26.4209C31.5189 26.4373 31.2975 26.4102 31.0878 26.341C30.878 26.2718 30.6839 26.162 30.5166 26.0177C30.3493 25.8735 30.212 25.6977 30.1127 25.5004C29.9632 25.2035 29.9051 24.8689 29.9457 24.5389C29.9863 24.2089 30.1239 23.8984 30.3409 23.6466C30.558 23.3947 30.8449 23.2129 31.1653 23.1241C31.4857 23.0353 31.8252 23.0435 32.1409 23.1476C32.4567 23.2518 32.7345 23.4472 32.9392 23.7092C33.1439 23.9711 33.2663 24.2879 33.291 24.6195C33.3157 24.951 33.2415 25.2825 33.0778 25.5719Z" fill="white"/>
<path d="M20.8769 30.3418C21.1059 30.4924 21.3744 30.5717 21.6484 30.5696C21.9224 30.5675 22.1897 30.4842 22.4163 30.3302C22.643 30.1763 22.8189 29.9585 22.9218 29.7045C23.0246 29.4505 23.0499 29.1717 22.9942 28.9034C22.9386 28.635 22.8047 28.3892 22.6093 28.1971C22.4139 28.0049 22.166 27.875 21.8968 27.8238C21.6276 27.7726 21.3492 27.8024 21.0969 27.9094C20.8447 28.0165 20.6298 28.1959 20.4796 28.4251C20.2784 28.732 20.2072 29.1063 20.2817 29.4657C20.3562 29.825 20.5703 30.1402 20.8769 30.3418Z" fill="white"/>
<path d="M21.9753 38.5901C22.2617 38.4213 22.5918 38.3412 22.9237 38.3599C23.369 38.3855 23.7859 38.5869 24.0829 38.9197C24.3799 39.2525 24.5326 39.6896 24.5075 40.135C24.4884 40.4669 24.3713 40.7857 24.1711 41.0511C23.9709 41.3165 23.6965 41.5166 23.3826 41.626C23.0687 41.7355 22.7294 41.7494 22.4075 41.6661C22.0857 41.5828 21.7958 41.4059 21.5745 41.1578C21.3531 40.9098 21.2103 40.6016 21.1641 40.2724C21.1178 39.9432 21.1702 39.6077 21.3146 39.3082C21.459 39.0088 21.6889 38.7589 21.9753 38.5901Z" fill="white"/>
<path d="M21.0606 49.6633C20.8161 49.7869 20.6138 49.9801 20.4791 50.2186C20.3445 50.4571 20.2836 50.7302 20.3041 51.0033C20.3247 51.2765 20.4257 51.5374 20.5945 51.7531C20.7633 51.9688 20.9922 52.1296 21.2524 52.2152C21.5126 52.3008 21.7923 52.3074 22.0562 52.2341C22.3201 52.1607 22.5563 52.0108 22.735 51.8032C22.9137 51.5957 23.0269 51.3398 23.0602 51.0679C23.0935 50.7961 23.0454 50.5204 22.9221 50.2759C22.8401 50.1133 22.727 49.9686 22.5891 49.8498C22.4511 49.7311 22.2912 49.6407 22.1183 49.5838C21.9454 49.5269 21.763 49.5047 21.5815 49.5183C21.4 49.5319 21.223 49.5812 21.0606 49.6633Z" fill="white"/>
<path d="M28.6986 35.2091C28.3072 35.2126 27.9235 35.0999 27.5961 34.8853C27.3785 34.743 27.1911 34.5591 27.0446 34.3443C26.8982 34.1294 26.7955 33.8878 26.7425 33.6332C26.6896 33.3786 26.6873 33.1161 26.736 32.8606C26.7846 32.6052 26.8831 32.3618 27.0259 32.1445C27.2406 31.8172 27.5475 31.5609 27.9078 31.4079C28.2681 31.255 28.6657 31.2123 29.0503 31.2854C29.4348 31.3584 29.7891 31.5438 30.0683 31.8182C30.3475 32.0925 30.5391 32.4435 30.6188 32.8267C30.6985 33.21 30.6628 33.6082 30.5162 33.9712C30.3696 34.3341 30.1187 34.6455 29.7952 34.8658C29.4716 35.0861 29.09 35.2056 28.6986 35.2091Z" fill="white"/>
<path d="M48.3305 26.113C48.6093 26.2948 48.9357 26.3899 49.2685 26.3863C49.6013 26.3827 49.9256 26.2804 50.2003 26.0925C50.475 25.9046 50.6878 25.6395 50.8119 25.3307C50.9359 25.0219 50.9657 24.6832 50.8973 24.3575C50.8289 24.0317 50.6655 23.7336 50.4277 23.5008C50.1899 23.2679 49.8884 23.1108 49.5613 23.0492C49.2343 22.9877 48.8963 23.0245 48.5901 23.155C48.2839 23.2855 48.0233 23.5038 47.8413 23.7824C47.72 23.9675 47.6365 24.1746 47.5954 24.392C47.5544 24.6094 47.5567 24.8328 47.6021 25.0493C47.6476 25.2658 47.7353 25.4712 47.8603 25.6537C47.9853 25.8363 48.1451 25.9923 48.3305 26.113Z" fill="white"/>
<path d="M48.5954 36.6216C48.154 36.5962 47.7118 36.658 47.2943 36.8035C46.8767 36.949 46.4919 37.1754 46.1618 37.4696C45.4952 38.0638 45.0919 38.8985 45.0407 39.79C44.9894 40.6816 45.2945 41.557 45.8887 42.2236C46.4829 42.8903 47.3176 43.2936 48.2091 43.3448H48.4041C49.0536 43.3445 49.6891 43.1563 50.234 42.8029C50.7789 42.4495 51.21 41.9461 51.4752 41.3532C51.7404 40.7604 51.8285 40.1034 51.7287 39.4617C51.629 38.8199 51.3458 38.2207 50.9131 37.7363C50.6201 37.4059 50.2643 37.1372 49.8664 36.9458C49.4685 36.7544 49.0364 36.6442 48.5954 36.6216Z" fill="white"/>
<path d="M34.7183 36.0064C34.1866 35.6792 33.7568 35.21 33.4774 34.6517C33.2204 34.1386 33.0987 33.5684 33.124 32.9952C33.1492 32.4219 33.3205 31.8646 33.6216 31.3761C33.9227 30.8876 34.3436 30.4841 34.8444 30.204C35.3452 29.9238 35.9092 29.7763 36.483 29.7753C37.106 29.7723 37.7174 29.9428 38.2489 30.2677C38.7804 30.5926 39.211 31.059 39.4924 31.6147C39.7524 32.1283 39.8764 32.6999 39.8526 33.275C39.8289 33.8501 39.6581 34.4095 39.3567 34.8998C39.0553 35.3902 38.6332 35.7951 38.1308 36.0759C37.6283 36.3568 37.0623 36.5042 36.4867 36.504C35.8624 36.506 35.2499 36.3337 34.7183 36.0064Z" fill="white"/>
<path d="M59.873 30.338C60.1175 30.2146 60.32 30.0215 60.4547 29.7831C60.5895 29.5447 60.6506 29.2717 60.6303 28.9986C60.61 28.7255 60.5091 28.4646 60.3405 28.2487C60.172 28.0329 59.9432 27.8719 59.6831 27.7861C59.423 27.7003 59.1434 27.6934 58.8794 27.7665C58.6155 27.8396 58.3792 27.9893 58.2003 28.1966C58.0214 28.404 57.908 28.6597 57.8744 28.9315C57.8408 29.2033 57.8885 29.4789 58.0115 29.7236C58.177 30.0518 58.4661 30.3008 58.8151 30.416C59.1642 30.5312 59.5447 30.5032 59.873 30.338Z" fill="white"/>
<path d="M50.504 32.2031C50.6969 31.8624 50.9864 31.5866 51.336 31.4105C51.5681 31.2934 51.8211 31.2231 52.0803 31.2038C52.3396 31.1845 52.6001 31.2165 52.847 31.298C53.0939 31.3795 53.3223 31.5089 53.5191 31.6788C53.7159 31.8486 53.8773 32.0556 53.9941 32.288C54.1701 32.6376 54.2386 33.0316 54.1908 33.4201C54.1429 33.8086 53.981 34.1742 53.7253 34.4707C53.4697 34.7672 53.1319 34.9812 52.7547 35.0857C52.3774 35.1902 51.9776 35.1805 51.6059 35.0578C51.2342 34.9351 50.9072 34.7049 50.6663 34.3963C50.4254 34.0878 50.2814 33.7147 50.2525 33.3243C50.2236 32.9339 50.3111 32.5437 50.504 32.2031Z" fill="white"/>
<path d="M41.4414 28.1131C41.1043 28.3119 40.7159 28.4063 40.3252 28.3844C39.8008 28.3545 39.3097 28.1176 38.9599 27.7258C38.6102 27.3339 38.4303 26.8192 38.4599 26.2948C38.4824 25.9041 38.6201 25.5288 38.8558 25.2164C39.0915 24.904 39.4145 24.6684 39.784 24.5395C40.1535 24.4106 40.5529 24.3941 40.9318 24.4921C41.3106 24.5902 41.6519 24.7983 41.9125 25.0903C42.1731 25.3822 42.3413 25.7449 42.3959 26.1324C42.4504 26.5199 42.3889 26.9149 42.219 27.2675C42.0491 27.62 41.7785 27.9143 41.4414 28.1131Z" fill="white"/>
<path d="M29.6015 48.5893C29.951 48.4131 30.2405 48.1371 30.4332 47.7964C30.6259 47.4556 30.7133 47.0653 30.6842 46.6749C30.6551 46.2845 30.5109 45.9115 30.2698 45.603C30.0287 45.2946 29.7015 45.0646 29.3297 44.9421C28.9578 44.8196 28.558 44.8101 28.1808 44.9149C27.8036 45.0196 27.4659 45.2339 27.2105 45.5306C26.955 45.8273 26.7933 46.1931 26.7458 46.5817C26.6983 46.9703 26.767 47.3642 26.9434 47.7137C27.1799 48.1822 27.5927 48.5377 28.0912 48.7019C28.5896 48.8661 29.1328 48.8256 29.6015 48.5893Z" fill="white"/>
<path d="M41.0645 33.3908C41.0037 32.6443 41.1935 31.8989 41.604 31.2724C41.9109 30.8047 42.3293 30.4208 42.8216 30.1552C43.3139 29.8896 43.8645 29.7508 44.4239 29.7512C45.1729 29.7521 45.9001 30.0029 46.4906 30.4636C47.081 30.9244 47.5009 31.569 47.6839 32.2953C47.8668 33.0216 47.8022 33.7881 47.5005 34.4736C47.1987 35.1591 46.677 35.7244 46.0178 36.08C45.3586 36.4356 44.5997 36.5612 43.8611 36.437C43.1225 36.3127 42.4465 35.9457 41.9399 35.3939C41.4334 34.8422 41.1253 34.1373 41.0645 33.3908Z" fill="white"/>
<path d="M47.4568 45.3498C47.1871 44.815 46.7796 44.3618 46.2763 44.0371C45.7731 43.7123 45.1923 43.5277 44.5938 43.5023C43.9954 43.4769 43.4011 43.6117 42.8721 43.8927C42.3431 44.1736 41.8987 44.5906 41.5847 45.1007C41.2707 45.6107 41.0984 46.1953 41.0857 46.7942C41.073 47.393 41.2203 47.9843 41.5124 48.5072C41.8046 49.0301 42.2309 49.4656 42.7475 49.7688C43.2641 50.0719 43.8522 50.2317 44.4511 50.2317C44.9781 50.2281 45.4969 50.1022 45.9669 49.8638C46.7617 49.4615 47.3648 48.7606 47.6441 47.9145C47.9233 47.0685 47.856 46.1463 47.4568 45.3498Z" fill="white"/>
<path d="M52.2373 44.7898C52.6287 44.7866 53.0123 44.8995 53.3396 45.1144C53.7776 45.4031 54.0834 45.8536 54.1899 46.3674C54.2965 46.8811 54.1951 47.4161 53.908 47.8552C53.6932 48.1824 53.3861 48.4386 53.0257 48.5913C52.6652 48.7441 52.2676 48.7865 51.8831 48.7133C51.4985 48.64 51.1443 48.4544 50.8653 48.1798C50.5862 47.9053 50.3949 47.5542 50.3154 47.1709C50.2359 46.7876 50.2719 46.3893 50.4187 46.0264C50.5656 45.6636 50.8167 45.3524 51.1404 45.1323C51.4641 44.9121 51.8459 44.7929 52.2373 44.7898Z" fill="white"/>
<path d="M59.7852 40.0577C59.8039 39.7257 59.7238 39.3957 59.555 39.1093C59.3863 38.8229 59.1363 38.593 58.8369 38.4486C58.5374 38.3041 58.2019 38.2518 57.8727 38.298C57.5435 38.3443 57.2354 38.4871 56.9873 38.7084C56.7392 38.9298 56.5624 39.2197 56.479 39.5415C56.3957 39.8633 56.4096 40.2026 56.5191 40.5165C56.6286 40.8305 56.8287 41.1049 57.094 41.3051C57.3594 41.5053 57.6782 41.6224 58.0101 41.6414C58.4555 41.6665 58.8926 41.5138 59.2254 41.2169C59.5583 40.9199 59.7596 40.503 59.7852 40.0577Z" fill="white"/>
<path d="M63.8279 39.0087C64.0136 38.8995 64.2275 38.8479 64.4425 38.8602C64.7306 38.8773 65.0002 39.0079 65.1923 39.2234C65.3843 39.4389 65.4831 39.7217 65.4671 40.0099C65.4547 40.2249 65.3788 40.4315 65.2491 40.6034C65.1194 40.7753 64.9416 40.9049 64.7382 40.9757C64.5348 41.0466 64.3149 41.0556 64.1065 41.0015C63.898 40.9474 63.7102 40.8327 63.5669 40.6719C63.4236 40.5111 63.3312 40.3114 63.3014 40.0981C63.2716 39.8848 63.3057 39.6675 63.3994 39.4736C63.4931 39.2796 63.6423 39.1179 63.8279 39.0087Z" fill="white"/>
<path d="M60.0575 49.6581C59.8284 49.508 59.5599 49.4293 59.286 49.4317C59.0122 49.4342 58.7452 49.5179 58.5188 49.6721C58.2924 49.8263 58.1169 50.0442 58.0143 50.2981C57.9117 50.5521 57.8868 50.8308 57.9426 51.0989C57.9983 51.3671 58.1324 51.6127 58.3277 51.8047C58.5231 51.9967 58.771 52.1264 59.0401 52.1776C59.3092 52.2287 59.5874 52.1989 59.8395 52.0919C60.0917 51.985 60.3065 51.8057 60.4567 51.5767C60.5565 51.4245 60.6254 51.2542 60.6594 51.0754C60.6934 50.8966 60.6918 50.7128 60.6547 50.5347C60.6176 50.3565 60.5458 50.1874 60.4434 50.037C60.3409 49.8866 60.2098 49.7578 60.0575 49.6581Z" fill="white"/>
<path d="M28.548 59.6463C28.7634 59.6445 28.9744 59.7066 29.1545 59.8248C29.2741 59.9032 29.3771 60.0045 29.4575 60.1228C29.5379 60.2411 29.5943 60.3741 29.6233 60.5141C29.6524 60.6542 29.6535 60.7986 29.6267 60.9392C29.6 61.0797 29.5457 61.2136 29.4672 61.3331C29.3489 61.5131 29.18 61.654 28.9817 61.738C28.7834 61.8219 28.5646 61.8452 28.3531 61.8049C28.1416 61.7646 27.9467 61.6624 27.7932 61.5114C27.6397 61.3603 27.5345 61.1671 27.4908 60.9563C27.4471 60.7454 27.4668 60.5263 27.5476 60.3267C27.6284 60.1271 27.7666 59.9559 27.9447 59.8348C28.1227 59.7136 28.3327 59.6481 28.548 59.6463Z" fill="white"/>
<path d="M51.9784 59.7108C51.7861 59.8077 51.6268 59.9595 51.5207 60.147C51.4147 60.3345 51.3666 60.5492 51.3826 60.764C51.3985 60.9788 51.4779 61.184 51.6105 61.3537C51.7431 61.5235 51.9231 61.65 52.1277 61.7174C52.3323 61.7849 52.5522 61.7901 52.7598 61.7325C52.9673 61.6749 53.1531 61.557 53.2937 61.3938C53.4342 61.2306 53.5232 61.0294 53.5494 60.8156C53.5756 60.6018 53.5378 60.385 53.4408 60.1927C53.3766 60.0649 53.2878 59.951 53.1794 59.8576C53.0711 59.7641 52.9455 59.693 52.8096 59.6482C52.6738 59.6035 52.5304 59.5859 52.3878 59.5967C52.2451 59.6074 52.106 59.6462 51.9784 59.7108Z" fill="white"/>
<path d="M39.8698 46.6031C39.9307 47.3497 39.7409 48.0953 39.3303 48.7218C39.025 49.1905 38.6071 49.5753 38.1149 49.841C37.6226 50.1067 37.0717 50.2449 36.5123 50.243C35.7632 50.2425 35.0358 49.9921 34.445 49.5315C33.8543 49.071 33.4341 48.4265 33.2508 47.7002C33.0676 46.9739 33.1318 46.2073 33.4334 45.5216C33.735 44.8359 34.2566 44.2704 34.9157 43.9146C35.5749 43.5588 36.3339 43.433 37.0726 43.5571C37.8113 43.6812 38.4875 44.0482 38.9941 44.5999C39.5008 45.1516 39.8089 45.8565 39.8698 46.6031Z" fill="white"/>
<path d="M32.6032 53.8889C32.325 53.7069 31.9991 53.6115 31.6666 53.6147C31.3342 53.6179 31.0102 53.7195 30.7355 53.9069C30.4608 54.0942 30.2479 54.3587 30.1235 54.667C29.9992 54.9754 29.9691 55.3136 30.0369 55.6391C30.1048 55.9645 30.2676 56.2626 30.5048 56.4955C30.742 56.7284 31.043 56.8858 31.3696 56.9477C31.6963 57.0096 32.0339 56.9733 32.3399 56.8434C32.6459 56.7134 32.9065 56.4957 33.0888 56.2177C33.333 55.8444 33.419 55.3895 33.3279 54.9528C33.2368 54.5162 32.9762 54.1335 32.6032 53.8889Z" fill="white"/>
<path d="M39.6707 60.5217C39.9068 60.3827 40.1787 60.3169 40.4522 60.3324C40.6339 60.3427 40.8117 60.3888 40.9756 60.4679C41.1395 60.547 41.2862 60.6576 41.4073 60.7934C41.5284 60.9292 41.6216 61.0875 41.6815 61.2593C41.7414 61.4312 41.7668 61.6131 41.7564 61.7948C41.7407 62.0682 41.6442 62.3309 41.4792 62.5496C41.3142 62.7682 41.0881 62.933 40.8295 63.0232C40.5708 63.1134 40.2913 63.1248 40.0261 63.0561C39.761 62.9874 39.5221 62.8416 39.3398 62.6372C39.1575 62.4328 39.0399 62.1789 39.0019 61.9076C38.9638 61.6364 39.0071 61.3599 39.1261 61.1132C39.2452 60.8665 39.4347 60.6607 39.6707 60.5217Z" fill="white"/>
<path d="M40.4666 51.6168C40.0755 51.5931 39.6862 51.6859 39.3479 51.8836C39.0097 52.0813 38.7377 52.3749 38.5664 52.7273C38.3951 53.0797 38.3323 53.4749 38.3859 53.8631C38.4395 54.2512 38.607 54.6147 38.8673 54.9075C39.1276 55.2003 39.469 55.4093 39.8482 55.5079C40.2273 55.6066 40.6273 55.5905 40.9973 55.4617C41.3673 55.3329 41.6908 55.0971 41.9267 54.7844C42.1626 54.4716 42.3004 54.0958 42.3226 53.7046C42.3528 53.1818 42.1743 52.6683 41.8264 52.2769C41.4784 51.8855 40.9894 51.6481 40.4666 51.6168Z" fill="white"/>
<path d="M47.8565 54.4309C48.0196 54.1405 48.2652 53.9051 48.5622 53.7544C48.759 53.6541 48.9735 53.5935 49.1937 53.5761C49.4138 53.5588 49.6352 53.5851 49.8452 53.6534C50.0552 53.7218 50.2496 53.8309 50.4174 53.9744C50.5852 54.118 50.723 54.2933 50.8229 54.4902C50.9744 54.7868 51.0344 55.1217 50.9953 55.4525C50.9563 55.7833 50.8201 56.095 50.6038 56.3483C50.3875 56.6016 50.1009 56.785 49.7804 56.8754C49.4598 56.9657 49.1196 56.9589 48.8029 56.8558C48.4862 56.7527 48.2072 56.558 48.0012 56.2963C47.7952 56.0346 47.6715 55.7176 47.6458 55.3856C47.62 55.0535 47.6933 54.7213 47.8565 54.4309Z" fill="white"/>
</svg>
