<svg width="80" height="80" viewBox="0 0 80 80" fill="none" xmlns="http://www.w3.org/2000/svg">
<path d="M78.811 49.654C73.4734 71.0695 51.7832 84.1465 30.3283 78.8058C8.91278 73.4519 -4.14326 51.7615 1.19428 30.346C6.53182 8.93052 28.209 -4.14654 49.6115 1.19424C71.0794 6.46958 84.1354 28.2254 78.811 49.654Z" fill="#F7931A"/>
<path d="M58.9415 34.7456C59.6604 29.4123 55.6081 26.628 50.0526 24.7456L51.7781 17.5299L47.3859 16.4711L45.7127 23.5299C44.5493 23.2554 43.3728 22.9809 42.2094 22.7456L43.8827 15.6868L39.4382 14.6279L37.7127 21.8436C36.7715 21.6214 35.8173 21.4515 34.8761 21.2292L28.8238 19.7783L27.7127 24.4449C27.7127 24.4449 30.9938 25.1639 30.8761 25.2293C32.6539 25.6737 32.9938 26.8371 32.9284 27.726L30.9807 35.9482C31.0983 36.0005 31.2552 36.0005 31.4251 36.1182C31.2552 36.0659 31.1506 36.0659 30.9807 36.0136L28.314 47.5169C28.0918 48.0659 27.5297 48.8502 26.314 48.5757C26.3663 48.628 23.0853 47.7914 23.0853 47.7914L21.0068 52.8502L26.7323 54.1836C27.7911 54.4581 28.85 54.6803 29.8434 54.9679L28.1179 62.2489L32.5101 63.3078L34.2356 56.0921C35.4644 56.4189 36.6278 56.7064 37.7389 56.9809L36.0134 64.1444L40.4055 65.2032L42.131 57.9221C49.6343 59.2555 55.2421 58.6411 57.5166 51.8045C59.3467 46.3535 57.3467 43.2424 53.3467 41.1901C56.2748 40.5234 58.3925 38.628 58.9415 34.7456ZM49.0591 48.9025C47.7781 54.3535 38.5624 51.5169 35.6081 50.7979L37.8827 41.1247C40.8892 41.8567 50.3925 43.1901 49.0591 48.9025ZM50.2748 34.7456C49.1114 39.6868 41.4382 37.3077 38.9415 36.6933L41.0591 27.9221C43.5036 28.5234 51.5036 29.5822 50.2748 34.7456Z" fill="white"/>
</svg>
