<svg width="80" height="80" viewBox="0 0 80 80" fill="none" xmlns="http://www.w3.org/2000/svg">
<path d="M78.811 49.654C73.4734 71.0695 51.7832 84.1465 30.3283 78.8058C8.91278 73.4519 -4.14326 51.7615 1.19428 30.346C6.53182 8.93052 28.209 -4.14654 49.6115 1.19424C71.0794 6.46958 84.1354 28.2254 78.811 49.654Z" fill="#627EEB"/>
<path d="M40.5013 49.7002C40.3459 49.753 40.2573 49.6178 40.1517 49.5556C34.9714 46.4983 29.7969 43.4388 24.6281 40.3773C24.578 40.352 24.526 40.3307 24.4727 40.3136V40.2452L24.5644 40.1924C24.6945 40.1582 24.8227 40.1167 24.9482 40.068L37.1554 34.5138C38.2433 34.0181 39.3311 33.5301 40.419 33.039H40.4967C40.4967 33.1944 40.4967 33.3327 40.4967 33.4804C40.5008 38.8875 40.5024 44.2941 40.5013 49.7002Z" fill="#C1CDF6"/>
<path d="M40.509 33.0428H40.4313C40.4313 32.8874 40.4469 32.732 40.4469 32.5688C40.4469 26.4955 40.4469 20.4217 40.4469 14.3473C40.429 14.1913 40.4396 14.0334 40.478 13.8811H40.5106C41.1493 14.8244 41.7057 15.819 42.2931 16.7934C46.947 24.513 51.5984 32.2315 56.2471 39.949C56.2922 40.0252 56.3279 40.1045 56.3683 40.1884C56.2367 40.1602 56.1073 40.1223 55.9814 40.0749C55.1282 39.6895 54.2719 39.2979 53.4265 38.9047C52.1024 38.2986 50.7778 37.6936 49.4527 37.0896L43.0686 34.1974C42.2185 33.8058 41.3638 33.4251 40.509 33.0428Z" fill="#C1CDF6"/>
<path d="M40.4831 13.8731C40.4447 14.0253 40.4341 14.1833 40.452 14.3393C40.452 20.4126 40.452 26.4864 40.452 32.5607C40.452 32.7161 40.4427 32.8716 40.4365 33.0347C39.3486 33.5258 38.2608 34.0138 37.1729 34.5095L24.9657 40.0638C24.8402 40.1124 24.712 40.1539 24.5818 40.1881C24.9346 39.4546 25.3931 38.7894 25.8111 38.087C30.6546 30.0359 35.5018 21.9864 40.3525 13.9384C40.3846 13.8938 40.4194 13.8512 40.4567 13.8109L40.4831 13.8731Z" fill="white"/>
<path d="M40.509 33.0428C41.3638 33.4251 42.2188 33.806 43.072 34.1914L49.4561 37.0835C50.7822 37.6865 52.1068 38.2915 53.4298 38.8986C54.2815 39.2887 55.1393 39.6834 55.9847 40.0688C56.1107 40.1162 56.2401 40.1542 56.3717 40.1823C56.5271 40.3766 56.2971 40.3843 56.2272 40.4263C54.9016 41.2189 53.5697 42.0005 52.241 42.7869C48.4273 45.0434 44.6146 47.2994 40.803 49.5549C40.7067 49.6108 40.6023 49.652 40.5013 49.7002C40.5013 44.2951 40.5015 38.8903 40.5015 33.4843C40.5031 33.3366 40.5075 33.1904 40.509 33.0428Z" fill="#8198EE"/>
<path d="M40.4467 52.7705L50.4316 46.8852C52.3379 45.7601 54.2432 44.6339 56.1475 43.5067L56.32 43.4119C56.3371 43.5673 56.2299 43.6497 56.1646 43.7398C51.8132 49.8742 47.4618 56.0066 43.1104 62.1369C42.2867 63.2993 41.4646 64.468 40.6332 65.6211C40.5897 65.6817 40.5229 65.9661 40.3892 65.6646C40.4949 65.5745 40.4483 65.4532 40.4483 65.3538C40.4493 61.1578 40.4488 56.9634 40.4467 52.7705Z" fill="#C1CDF6"/>
<path d="M40.4459 52.7713C40.4459 56.9641 40.4459 61.156 40.4459 65.3468C40.4459 65.454 40.4925 65.5752 40.3868 65.6576C40.1646 65.524 40.0682 65.2846 39.9206 65.0873C34.875 57.98 29.8321 50.8717 24.7917 43.7623C24.728 43.6722 24.669 43.5759 24.6037 43.4764C24.7342 43.4002 24.8042 43.5044 24.8803 43.5494C29.9828 46.5623 35.0843 49.5777 40.1848 52.5957C40.2796 52.6547 40.3604 52.7153 40.4459 52.7713Z" fill="white"/>
<path d="M40.4842 13.873L40.4469 13.8155C40.5153 13.772 40.506 13.8357 40.5169 13.8683L40.4842 13.873Z" fill="#C1CDF6"/>
</svg>
