<svg width="81" height="80" viewBox="0 0 81 80" fill="none" xmlns="http://www.w3.org/2000/svg">
<path d="M78.8461 49.6511C73.5086 71.0665 51.8183 84.1436 30.3635 78.8028C8.94794 73.449 -4.1081 51.7586 1.22944 30.3431C6.56698 8.92759 28.2442 -4.14947 49.6467 1.19131C71.1146 6.46665 84.1706 28.2225 78.8461 49.6511Z" fill="#375BD2"/>
<path d="M40.2674 23.2889L54.8474 31.6145V48.3322L40.3076 56.7112L25.7276 48.3989V31.681L40.2674 23.2889ZM40.2674 11L34.917 14.0855L20.3504 22.4777L15 25.5632V31.7076V48.4121V54.5565L20.3504 57.6156L34.9304 65.9411L40.2808 69L45.6313 65.9145L60.1711 57.5225L65.5215 54.4502V48.3058V31.5879V25.4435L60.1711 22.3846L45.5912 14.0589L40.2408 11H40.2674Z" fill="white"/>
</svg>
