<svg width="81" height="80" viewBox="0 0 81 80" fill="none" xmlns="http://www.w3.org/2000/svg">
<path d="M78.8461 49.6511C73.5086 71.0665 51.8183 84.1436 30.3635 78.8028C8.94794 73.449 -4.1081 51.7586 1.22944 30.3431C6.56698 8.92759 28.2442 -4.14947 49.6467 1.19131C71.1146 6.46665 84.1706 28.2225 78.8461 49.6511Z" fill="#262C32"/>
<path d="M57.9469 19.1104H65.1661L50.126 34.3176C44.6781 39.8323 35.8546 39.8323 30.4068 34.3176L15.3666 19.1104H22.5859L34.0164 30.6745C37.392 34.1171 42.9736 34.1505 46.4161 30.7748C46.4495 30.7414 46.483 30.708 46.5164 30.6745L57.9469 19.1104ZM22.5191 61.3898H15.2998L30.4402 46.0823C35.888 40.5676 44.7116 40.5676 50.1594 46.0823L65.2998 61.3898H58.0806L46.5832 49.7588C43.2076 46.3163 37.626 46.2828 34.1835 49.6585C34.1501 49.6919 34.1166 49.7254 34.0832 49.7588L22.5191 61.3898Z" fill="white"/>
</svg>
