<svg width="57" height="41" viewBox="0 0 57 41" fill="none" xmlns="http://www.w3.org/2000/svg">
<path d="M0.0129027 36.2678L0.169263 12.1883C0.176402 11.0888 1.06885 10.2013 2.16835 10.2013H4.55414C11.2931 10.2013 20.9479 0 28.4167 0H31.3369C32.4415 0 33.3363 0.895429 33.3363 2V24.7784C33.3363 25.8829 32.4429 26.7784 31.3383 26.7784H28.9629C24.7731 26.7784 9.10881 38.2548 4.55414 38.2548H1.98508C0.885577 38.2548 0.00576322 37.3673 0.0129027 36.2678Z" fill="#2FAF88"/>
<path d="M22.8879 39.0129L23.0443 14.9334C23.0514 13.8339 23.9439 12.9464 25.0434 12.9464H27.4291C34.1681 12.9464 43.8229 2.74512 51.2917 2.74512H54.2119C55.3165 2.74512 56.2113 3.64055 56.2113 4.74512V27.5235C56.2113 28.628 55.3179 29.5235 54.2133 29.5235H51.8379C47.6481 29.5235 31.9838 40.9999 27.4291 40.9999H24.8601C23.7606 40.9999 22.8808 40.1124 22.8879 39.0129Z" fill="#13EBAA"/>
</svg>
