<svg width="143" height="143" viewBox="0 0 143 143" fill="none" xmlns="http://www.w3.org/2000/svg">
<rect width="143" height="143" rx="40" fill="#2965BE"/>
<path d="M44.44 71.28C40.6 71.28 37.12 70.44 34 68.76C30.88 67 28.4 64.52 26.56 61.32C24.72 58.12 23.8 54.32 23.8 49.92C23.8 45.52 24.72 41.72 26.56 38.52C28.4 35.32 30.88 32.88 34 31.2C37.12 29.44 40.64 28.56 44.56 28.56C48.4 28.56 51.84 29.44 54.88 31.2C58 32.88 60.48 35.32 62.32 38.52C64.16 41.72 65.08 45.52 65.08 49.92C65.08 54.32 64.16 58.12 62.32 61.32C60.48 64.52 58 67 54.88 68.76C51.76 70.44 48.28 71.28 44.44 71.28ZM39.88 114L87.28 30H102.28L54.88 114H39.88ZM44.44 60.6C46.76 60.6 48.76 59.72 50.44 57.96C52.12 56.12 52.96 53.44 52.96 49.92C52.96 46.4 52.12 43.72 50.44 41.88C48.84 40.04 46.84 39.12 44.44 39.12C42.04 39.12 40 40.04 38.32 41.88C36.72 43.72 35.92 46.4 35.92 49.92C35.92 53.44 36.72 56.12 38.32 57.96C40 59.72 42.04 60.6 44.44 60.6ZM98.2 115.44C94.36 115.44 90.88 114.6 87.76 112.92C84.64 111.16 82.16 108.68 80.32 105.48C78.48 102.28 77.56 98.48 77.56 94.08C77.56 89.68 78.48 85.92 80.32 82.8C82.16 79.6 84.64 77.16 87.76 75.48C90.88 73.72 94.4 72.84 98.32 72.84C102.16 72.84 105.6 73.72 108.64 75.48C111.76 77.16 114.24 79.6 116.08 82.8C117.92 85.92 118.84 89.68 118.84 94.08C118.84 98.48 117.92 102.28 116.08 105.48C114.24 108.68 111.76 111.16 108.64 112.92C105.6 114.6 102.12 115.44 98.2 115.44ZM98.2 104.76C100.6 104.76 102.6 103.88 104.2 102.12C105.88 100.28 106.72 97.6 106.72 94.08C106.72 90.56 105.88 87.88 104.2 86.04C102.6 84.2 100.6 83.28 98.2 83.28C95.8 83.28 93.76 84.2 92.08 86.04C90.48 87.88 89.68 90.56 89.68 94.08C89.68 97.6 90.48 100.28 92.08 102.12C93.76 103.88 95.8 104.76 98.2 104.76Z" fill="white"/>
</svg>
