<svg width="33" height="24" viewBox="0 0 33 24" fill="none" xmlns="http://www.w3.org/2000/svg">
<path d="M0.0129027 20.406L0.0937309 7.95849C0.10087 6.85902 0.993411 5.97148 2.09291 5.97148H2.66584C6.61059 5.97148 12.2622 0 16.6341 0H17.5139C18.6185 0 19.5139 0.89543 19.5139 2V13.6751C19.5139 14.7797 18.62 15.6751 17.5154 15.6751H16.9539C14.5013 15.6751 5.33199 22.3931 2.66584 22.3931H1.98696C0.887456 22.3931 0.00576321 21.5055 0.0129027 20.406Z" fill="#2FAF88"/>
<path d="M13.4035 22.013L13.4844 9.56543C13.4915 8.46595 14.384 7.57841 15.4835 7.57841H16.0565C20.0012 7.57841 25.6528 1.60693 30.0248 1.60693H30.9046C32.0091 1.60693 32.9046 2.50236 32.9046 3.60693V15.2821C32.9046 16.3866 32.0106 17.2821 30.906 17.2821H30.3445C27.892 17.2821 18.7226 24 16.0565 24H15.3776C14.2781 24 13.3964 23.1125 13.4035 22.013Z" fill="#13EBAA"/>
</svg>
