<svg width="16" height="10" viewBox="0 0 16 10" fill="none" xmlns="http://www.w3.org/2000/svg">
<path d="M10.9998 9.75C10.5856 9.75 10.2498 9.41421 10.2498 9C10.2498 8.58579 10.5856 8.25 10.9998 8.25V9.75ZM14.9998 8.25C15.4141 8.25 15.7498 8.58579 15.7498 9C15.7498 9.41421 15.4141 9.75 14.9998 9.75V8.25ZM15.75 9C15.75 9.41421 15.4142 9.75 15 9.75C14.5858 9.75 14.25 9.41421 14.25 9H15.75ZM14.25 5C14.25 4.58579 14.5858 4.25 15 4.25C15.4142 4.25 15.75 4.58579 15.75 5H14.25ZM15.5302 8.46967C15.8231 8.76256 15.8231 9.23744 15.5302 9.53033C15.2373 9.82322 14.7624 9.82322 14.4695 9.53033L15.5302 8.46967ZM7.99984 2L7.46951 1.46967C7.7624 1.17678 8.23727 1.17678 8.53017 1.46967L7.99984 2ZM4.99984 5L5.53017 5.53033C5.23727 5.82322 4.7624 5.82322 4.46951 5.53033L4.99984 5ZM0.469507 1.53033C0.176614 1.23744 0.176614 0.762563 0.469507 0.46967C0.7624 0.176777 1.23727 0.176777 1.53017 0.46967L0.469507 1.53033ZM10.9998 8.25H14.9998V9.75H10.9998V8.25ZM14.25 9V5H15.75V9H14.25ZM14.4695 9.53033L7.46951 2.53033L8.53017 1.46967L15.5302 8.46967L14.4695 9.53033ZM8.53017 2.53033L5.53017 5.53033L4.46951 4.46967L7.46951 1.46967L8.53017 2.53033ZM4.46951 5.53033L0.469507 1.53033L1.53017 0.46967L5.53017 4.46967L4.46951 5.53033Z" fill="#D9304F"/>
</svg>
