<svg width="14" height="10" viewBox="0 0 14 10" fill="none" xmlns="http://www.w3.org/2000/svg">
<path d="M4.42857 9.75C4.84279 9.75 5.17857 9.41421 5.17857 9C5.17857 8.58579 4.84279 8.25 4.42857 8.25V9.75ZM1 8.25C0.585786 8.25 0.25 8.58579 0.25 9C0.25 9.41421 0.585786 9.75 1 9.75V8.25ZM0.25 9C0.25 9.41421 0.585786 9.75 1 9.75C1.41421 9.75 1.75 9.41421 1.75 9H0.25ZM1.75 5C1.75 4.58579 1.41421 4.25 1 4.25C0.585786 4.25 0.25 4.58579 0.25 5H1.75ZM0.430558 8.51191C0.160991 8.8264 0.197412 9.29988 0.511906 9.56944C0.826401 9.83901 1.29988 9.80259 1.56944 9.48809L0.430558 8.51191ZM7 2L7.56944 1.51191C7.42696 1.34567 7.21894 1.25 7 1.25C6.78106 1.25 6.57304 1.34567 6.43056 1.51191L7 2ZM9.57143 5L9.00199 5.48809C9.14447 5.65433 9.35248 5.75 9.57143 5.75C9.79037 5.75 9.99838 5.65433 10.1409 5.48809L9.57143 5ZM13.5694 1.48809C13.839 1.1736 13.8026 0.700124 13.4881 0.430558C13.1736 0.160991 12.7001 0.197412 12.4306 0.511906L13.5694 1.48809ZM4.42857 8.25H1V9.75H4.42857V8.25ZM1.75 9V5H0.25V9H1.75ZM1.56944 9.48809L7.56944 2.48809L6.43056 1.51191L0.430558 8.51191L1.56944 9.48809ZM6.43056 2.48809L9.00199 5.48809L10.1409 4.51191L7.56944 1.51191L6.43056 2.48809ZM10.1409 5.48809L13.5694 1.48809L12.4306 0.511906L9.00199 4.51191L10.1409 5.48809Z" fill="#D9304F"/>
</svg>
