<svg width="16" height="11" viewBox="0 0 16 11" fill="none" xmlns="http://www.w3.org/2000/svg">
<path d="M11.1096 0.708497C10.6954 0.708497 10.3596 1.04428 10.3596 1.4585C10.3596 1.87271 10.6954 2.2085 11.1096 2.2085V0.708497ZM14.9918 2.2085C15.406 2.2085 15.7418 1.87271 15.7418 1.4585C15.7418 1.04428 15.406 0.708497 14.9918 0.708497V2.2085ZM15.7418 1.4585C15.7418 1.04428 15.406 0.708496 14.9918 0.708496C14.5775 0.708496 14.2418 1.04428 14.2418 1.4585H15.7418ZM14.2418 5.57496C14.2418 5.98918 14.5775 6.32496 14.9918 6.32496C15.406 6.32496 15.7418 5.98918 15.7418 5.57496H14.2418ZM15.5374 1.97307C15.8216 1.67172 15.8077 1.19705 15.5063 0.912863C15.205 0.628673 14.7303 0.642579 14.4461 0.943924L15.5374 1.97307ZM8.19803 8.66231L7.65239 9.17688C7.7941 9.32714 7.99149 9.41231 8.19803 9.41231C8.40456 9.41231 8.60196 9.32714 8.74366 9.17688L8.19803 8.66231ZM5.28643 5.57496L5.83206 5.06039C5.69036 4.91013 5.49296 4.82496 5.28643 4.82496C5.07989 4.82496 4.8825 4.91013 4.7408 5.06039L5.28643 5.57496ZM0.858664 9.17685C0.574473 9.4782 0.58838 9.95287 0.889725 10.2371C1.19107 10.5213 1.66574 10.5073 1.94993 10.206L0.858664 9.17685ZM11.1096 2.2085H14.9918V0.708497H11.1096V2.2085ZM14.2418 1.4585V5.57496H15.7418V1.4585H14.2418ZM14.4461 0.943924L7.65239 8.14774L8.74366 9.17688L15.5374 1.97307L14.4461 0.943924ZM8.74366 8.14774L5.83206 5.06039L4.7408 6.08953L7.65239 9.17688L8.74366 8.14774ZM4.7408 5.06039L0.858664 9.17685L1.94993 10.206L5.83206 6.08953L4.7408 5.06039Z" fill="#13EBAA"/>
</svg>
